<?xml version="1.0" encoding="UTF-8" standalone="no" ?>
<!DOCTYPE svg PUBLIC "-//W3C//DTD SVG 1.1//EN" "http://www.w3.org/Graphics/SVG/1.1/DTD/svg11.dtd">
<svg xmlns="http://www.w3.org/2000/svg" xmlns:xlink="http://www.w3.org/1999/xlink" version="1.1" width="1080" height="1080" viewBox="0 0 1080 1080" xml:space="preserve">
<desc>Created with Fabric.js 5.2.4</desc>
<defs>
</defs>
<g transform="matrix(1 0 0 1 540 540)" id="398b1c80-e3b5-4ae7-a24f-fd9a2081711b"  >
<rect style="stroke: none; stroke-width: 1; stroke-dasharray: none; stroke-linecap: butt; stroke-dashoffset: 0; stroke-linejoin: miter; stroke-miterlimit: 4; fill: rgb(255,255,255); fill-rule: nonzero; opacity: 1; visibility: hidden;" vector-effect="non-scaling-stroke"  x="-540" y="-540" rx="0" ry="0" width="1080" height="1080" />
</g>
<g transform="matrix(1 0 0 1 540 540)" id="5e757c4e-0671-4ce3-8842-013113a1f865"  >
</g>
<g transform="matrix(38.57 0 0 38.57 540 540)"  >
<g style=""   >
		<g transform="matrix(1 0 0 1 0 -12.31)" clip-path="url(#CLIPPATH_3)"  >
<clipPath id="CLIPPATH_3" >
	<rect transform="matrix(1 0 0 1 0 12.31)" id="clip0_54_141" x="-14" y="-14" rx="0" ry="0" width="28" height="28" />
</clipPath>
<path style="stroke: none; stroke-width: 1; stroke-dasharray: none; stroke-linecap: butt; stroke-dashoffset: 0; stroke-linejoin: miter; stroke-miterlimit: 4; fill: rgb(48,48,48); fill-rule: nonzero; opacity: 1;" vector-effect="non-scaling-stroke"  transform=" translate(-14, -1.69)" d="M 23.405 2.76795 L 21.8815 0.201414 C 21.8075 0.0765078 21.673 0 21.5278 0 L 6.47388 0 C 6.32869 0 6.19421 0.0765078 6.12011 0.201414 L 4.59668 2.76795 C 4.52121 2.8951 4.51979 3.05298 4.59296 3.1815 C 4.66613 3.30996 4.80263 3.38937 4.95051 3.38937 L 23.0513 3.38937 C 23.1991 3.38937 23.3356 3.31002 23.4088 3.18145 C 23.4819 3.05304 23.4805 2.8951 23.405 2.76795 Z" stroke-linecap="round" />
</g>
		<g transform="matrix(1 0 0 1 7.14 -12.31)" clip-path="url(#CLIPPATH_4)"  >
<clipPath id="CLIPPATH_4" >
	<rect transform="matrix(1 0 0 1 -7.14 12.31)" id="clip0_54_141" x="-14" y="-14" rx="0" ry="0" width="28" height="28" />
</clipPath>
<path style="stroke: none; stroke-width: 1; stroke-dasharray: none; stroke-linecap: butt; stroke-dashoffset: 0; stroke-linejoin: miter; stroke-miterlimit: 4; fill: rgb(35,35,35); fill-rule: nonzero; opacity: 1;" vector-effect="non-scaling-stroke"  transform=" translate(-21.14, -1.69)" d="M 20.8243 3.38942 L 23.0487 3.38942 C 23.1965 3.38942 23.3331 3.31007 23.4063 3.1815 C 23.4794 3.05304 23.478 2.8951 23.4025 2.76795 L 21.879 0.201414 C 21.8049 0.0765078 21.6705 0 21.5252 0 L 18.8125 0 L 20.8243 3.38942 Z" stroke-linecap="round" />
</g>
		<g transform="matrix(1 0 0 1 0 -6.12)" clip-path="url(#CLIPPATH_5)"  >
<clipPath id="CLIPPATH_5" >
	<rect transform="matrix(1 0 0 1 0 6.12)" id="clip0_54_141" x="-14" y="-14" rx="0" ry="0" width="28" height="28" />
</clipPath>
<path style="stroke: none; stroke-width: 1; stroke-dasharray: none; stroke-linecap: butt; stroke-dashoffset: 0; stroke-linejoin: miter; stroke-miterlimit: 4; fill: rgb(224,224,224); fill-rule: nonzero; opacity: 1;" vector-effect="non-scaling-stroke"  transform=" translate(-14, -7.88)" d="M 23.3584 5.32716 C 23.2803 5.23955 23.1685 5.18945 23.0512 5.18945 L 4.95046 5.18945 C 4.8331 5.18945 4.72137 5.23955 4.64333 5.32716 C 4.56529 5.41477 4.52832 5.53152 4.54178 5.64806 L 5.06754 10.2011 C 5.0915 10.4087 5.26732 10.5654 5.47628 10.5654 L 22.5255 10.5654 C 22.7345 10.5654 22.9103 10.4088 22.9342 10.2011 L 23.46 5.64806 C 23.4734 5.53152 23.4365 5.41471 23.3584 5.32716 Z" stroke-linecap="round" />
</g>
		<g transform="matrix(1 0 0 1 0 10.35)" clip-path="url(#CLIPPATH_6)"  >
<clipPath id="CLIPPATH_6" >
	<rect transform="matrix(1 0 0 1 0 -10.35)" id="clip0_54_141" x="-14" y="-14" rx="0" ry="0" width="28" height="28" />
</clipPath>
<path style="stroke: none; stroke-width: 1; stroke-dasharray: none; stroke-linecap: butt; stroke-dashoffset: 0; stroke-linejoin: miter; stroke-miterlimit: 4; fill: rgb(224,224,224); fill-rule: nonzero; opacity: 1;" vector-effect="non-scaling-stroke"  transform=" translate(-14, -24.35)" d="M 21.2587 20.707 L 6.74151 20.707 C 6.62415 20.707 6.51242 20.7571 6.43438 20.8447 C 6.35634 20.9323 6.31938 21.0491 6.33277 21.1656 L 7.08002 27.6364 C 7.10398 27.844 7.2798 28.0007 7.48876 28.0007 L 20.5114 28.0007 C 20.7204 28.0007 20.8962 27.8441 20.9201 27.6364 L 21.6673 21.1656 C 21.6808 21.049 21.6439 20.9323 21.5658 20.8447 C 21.4877 20.7571 21.3759 20.707 21.2587 20.707 Z" stroke-linecap="round" />
</g>
		<g transform="matrix(1 0 0 1 7.98 -6.12)" clip-path="url(#CLIPPATH_7)"  >
<clipPath id="CLIPPATH_7" >
	<rect transform="matrix(1 0 0 1 -7.98 6.12)" id="clip0_54_141" x="-14" y="-14" rx="0" ry="0" width="28" height="28" />
</clipPath>
<path style="stroke: none; stroke-width: 1; stroke-dasharray: none; stroke-linecap: butt; stroke-dashoffset: 0; stroke-linejoin: miter; stroke-miterlimit: 4; fill: rgb(198,198,198); fill-rule: nonzero; opacity: 1;" vector-effect="non-scaling-stroke"  transform=" translate(-21.98, -7.88)" d="M 23.0482 5.18945 L 21.1208 5.18945 L 20.5 10.5653 L 22.5223 10.5653 C 22.7313 10.5653 22.9071 10.4087 22.931 10.2011 L 23.4568 5.64801 C 23.4704 5.53141 23.4334 5.41471 23.3553 5.3271 C 23.2772 5.23955 23.1655 5.18945 23.0482 5.18945 Z" stroke-linecap="round" />
</g>
		<g transform="matrix(1 0 0 1 6.08 10.35)" clip-path="url(#CLIPPATH_8)"  >
<clipPath id="CLIPPATH_8" >
	<rect transform="matrix(1 0 0 1 -6.08 -10.35)" id="clip0_54_141" x="-14" y="-14" rx="0" ry="0" width="28" height="28" />
</clipPath>
<path style="stroke: none; stroke-width: 1; stroke-dasharray: none; stroke-linecap: butt; stroke-dashoffset: 0; stroke-linejoin: miter; stroke-miterlimit: 4; fill: rgb(198,198,198); fill-rule: nonzero; opacity: 1;" vector-effect="non-scaling-stroke"  transform=" translate(-20.08, -24.35)" d="M 21.567 20.8447 C 21.4889 20.7571 21.3771 20.707 21.2598 20.707 L 19.3325 20.707 L 18.4902 28.0007 L 20.5126 28.0007 C 20.7215 28.0007 20.8974 27.8441 20.9213 27.6364 L 21.6685 21.1656 C 21.6821 21.0491 21.6451 20.9323 21.567 20.8447 Z" stroke-linecap="round" />
</g>
		<g transform="matrix(1 0 0 1 0 -9.71)" clip-path="url(#CLIPPATH_9)"  >
<clipPath id="CLIPPATH_9" >
	<rect transform="matrix(1 0 0 1 0 9.71)" id="clip0_54_141" x="-14" y="-14" rx="0" ry="0" width="28" height="28" />
</clipPath>
<path style="stroke: none; stroke-width: 1; stroke-dasharray: none; stroke-linecap: butt; stroke-dashoffset: 0; stroke-linejoin: miter; stroke-miterlimit: 4; fill: rgb(73,73,73); fill-rule: nonzero; opacity: 1;" vector-effect="non-scaling-stroke"  transform=" translate(-14, -4.29)" d="M 24.1748 2.56689 L 3.82938 2.56689 C 3.60216 2.56689 3.41797 2.75108 3.41797 2.97831 L 3.41797 5.60145 C 3.41797 5.82868 3.60216 6.01286 3.82938 6.01286 L 24.1747 6.01286 C 24.402 6.01286 24.5861 5.82868 24.5861 5.60145 L 24.5861 2.97831 C 24.5862 2.75108 24.402 2.56689 24.1748 2.56689 Z" stroke-linecap="round" />
</g>
		<g transform="matrix(1 0 0 1 9.14 -9.71)" clip-path="url(#CLIPPATH_10)"  >
<clipPath id="CLIPPATH_10" >
	<rect transform="matrix(1 0 0 1 -9.14 9.71)" id="clip0_54_141" x="-14" y="-14" rx="0" ry="0" width="28" height="28" />
</clipPath>
<path style="stroke: none; stroke-width: 1; stroke-dasharray: none; stroke-linecap: butt; stroke-dashoffset: 0; stroke-linejoin: miter; stroke-miterlimit: 4; fill: rgb(48,48,48); fill-rule: nonzero; opacity: 1;" vector-effect="non-scaling-stroke"  transform=" translate(-23.14, -4.29)" d="M 24.1658 2.56689 L 21.6973 2.56689 L 21.6973 6.01286 L 24.1658 6.01286 C 24.3931 6.01286 24.5772 5.82868 24.5772 5.60145 L 24.5772 2.97831 C 24.5772 2.75108 24.393 2.56689 24.1658 2.56689 Z" stroke-linecap="round" />
</g>
		<g transform="matrix(1 0 0 1 0 1.64)" clip-path="url(#CLIPPATH_11)"  >
<clipPath id="CLIPPATH_11" >
	<rect transform="matrix(1 0 0 1 0 -1.64)" id="clip0_54_141" x="-14" y="-14" rx="0" ry="0" width="28" height="28" />
</clipPath>
<path style="stroke: none; stroke-width: 1; stroke-dasharray: none; stroke-linecap: butt; stroke-dashoffset: 0; stroke-linejoin: miter; stroke-miterlimit: 4; fill: rgb(255,144,23); fill-rule: nonzero; opacity: 1;" vector-effect="non-scaling-stroke"  transform=" translate(-14, -15.64)" d="M 23.7957 9.88575 C 23.7176 9.79814 23.6059 9.74805 23.4885 9.74805 L 4.50957 9.74805 C 4.39221 9.74805 4.28049 9.79814 4.20245 9.88575 C 4.12441 9.97336 4.08744 10.0901 4.10084 10.2067 L 5.36686 21.1702 C 5.39081 21.3778 5.56663 21.5345 5.77559 21.5345 L 22.2225 21.5345 C 22.4315 21.5345 22.6073 21.3779 22.6312 21.1702 L 23.8972 10.2067 C 23.9108 10.0901 23.8738 9.9733 23.7957 9.88575 Z" stroke-linecap="round" />
</g>
		<g transform="matrix(1 0 0 1 8.05 1.64)" clip-path="url(#CLIPPATH_12)"  >
<clipPath id="CLIPPATH_12" >
	<rect transform="matrix(1 0 0 1 -8.05 -1.64)" id="clip0_54_141" x="-14" y="-14" rx="0" ry="0" width="28" height="28" />
</clipPath>
<path style="stroke: none; stroke-width: 1; stroke-dasharray: none; stroke-linecap: butt; stroke-dashoffset: 0; stroke-linejoin: miter; stroke-miterlimit: 4; fill: rgb(237,125,12); fill-rule: nonzero; opacity: 1;" vector-effect="non-scaling-stroke"  transform=" translate(-22.05, -15.64)" d="M 23.7992 9.88575 C 23.7211 9.79814 23.6093 9.74805 23.492 9.74805 L 21.5647 9.74805 L 20.2036 21.5345 L 22.226 21.5345 C 22.435 21.5345 22.6107 21.3779 22.6346 21.1702 L 23.9007 10.2067 C 23.9142 10.0901 23.8772 9.9733 23.7992 9.88575 Z" stroke-linecap="round" />
</g>
		<g transform="matrix(1 0 0 1 0 1.44)" clip-path="url(#CLIPPATH_13)"  >
<clipPath id="CLIPPATH_13" >
	<rect transform="matrix(1 0 0 1 0 -1.44)" id="clip0_54_141" x="-14" y="-14" rx="0" ry="0" width="28" height="28" />
</clipPath>
<path style="stroke: none; stroke-width: 1; stroke-dasharray: none; stroke-linecap: butt; stroke-dashoffset: 0; stroke-linejoin: miter; stroke-miterlimit: 4; fill: rgb(124,61,30); fill-rule: nonzero; opacity: 1;" vector-effect="non-scaling-stroke"  transform=" translate(-14, -15.44)" d="M 14.003 12.144 C 12.471 12.144 11.2246 13.6218 11.2246 15.4382 C 11.2246 17.2546 12.4709 18.7324 14.003 18.7324 C 15.535 18.7324 16.7812 17.2546 16.7812 15.4382 C 16.7812 13.6218 15.5349 12.144 14.003 12.144 Z" stroke-linecap="round" />
</g>
		<g transform="matrix(1 0 0 1 0.95 1.44)" clip-path="url(#CLIPPATH_14)"  >
<clipPath id="CLIPPATH_14" >
	<rect transform="matrix(1 0 0 1 -0.95 -1.44)" id="clip0_54_141" x="-14" y="-14" rx="0" ry="0" width="28" height="28" />
</clipPath>
<path style="stroke: none; stroke-width: 1; stroke-dasharray: none; stroke-linecap: butt; stroke-dashoffset: 0; stroke-linejoin: miter; stroke-miterlimit: 4; fill: rgb(96,46,24); fill-rule: nonzero; opacity: 1;" vector-effect="non-scaling-stroke"  transform=" translate(-14.95, -15.44)" d="M 14.0001 12.144 C 13.6944 12.144 13.4004 12.2038 13.125 12.3124 C 14.2294 12.7482 15.0282 13.9842 15.0282 15.4381 C 15.0282 16.892 14.2294 18.1281 13.125 18.5639 C 13.4004 18.6725 13.6944 18.7322 14.0001 18.7322 C 15.5321 18.7322 16.7784 17.2544 16.7784 15.438 C 16.7784 13.6218 15.5321 12.144 14.0001 12.144 Z" stroke-linecap="round" />
</g>
		<g transform="matrix(1 0 0 1 0.14 1.45)" clip-path="url(#CLIPPATH_15)"  >
<clipPath id="CLIPPATH_15" >
	<rect transform="matrix(1 0 0 1 -0.14 -1.45)" id="clip0_54_141" x="-14" y="-14" rx="0" ry="0" width="28" height="28" />
</clipPath>
<path style="stroke: none; stroke-width: 1; stroke-dasharray: none; stroke-linecap: butt; stroke-dashoffset: 0; stroke-linejoin: miter; stroke-miterlimit: 4; fill: rgb(71,32,19); fill-rule: nonzero; opacity: 1;" vector-effect="non-scaling-stroke"  transform=" translate(-14.14, -15.45)" d="M 15.0306 12.3854 C 14.7484 12.2515 14.4439 12.1708 14.1253 12.1543 L 13.987 12.3047 C 13.9851 12.3069 13.9831 12.309 13.9813 12.3111 C 13.444 12.9205 12.7207 14.4533 13.8282 15.8922 C 14.1283 16.2823 14.2005 16.7569 14.0426 17.3028 C 13.9132 17.7503 13.6747 18.0786 13.6748 18.0786 L 13.264 18.6198 C 13.4993 18.6968 13.7468 18.7389 14.0026 18.7389 C 14.074 18.7389 14.1446 18.7346 14.2148 18.7283 L 14.3327 18.573 C 14.3456 18.5557 14.6507 18.1417 14.8248 17.5599 C 15.0676 16.7487 14.9484 15.9986 14.4804 15.3904 C 13.5243 14.148 14.5324 12.9327 14.597 12.8574 L 15.0306 12.3854 Z" stroke-linecap="round" />
</g>
</g>
</g>
</svg>